<?xml version="1.0" encoding="utf-8"?>
<svg width="2500" height="1000" viewBox="40 57 110 79" xmlns="http://www.w3.org/2000/svg">
  <defs>
    <clipPath clipPathUnits="userSpaceOnUse" id="clipPath18">
      <path d="M 0,507.205 H 1088.129 V 0 H 0 Z" id="path16"/>
    </clipPath>
  </defs>
  <g id="g10" transform="matrix(0.240973, 0, 0, -0.240973, -35.244114, 158.367813)" style="">
    <g id="g12">
      <g id="g14" clip-path="url(#clipPath18)">
        <g id="g20" transform="translate(359.1626,276.5865)">
          <path d="m 0,0 -12.022,-75.404 c -0.608,-3.454 -2.817,-5.441 -6.057,-5.441 -1.556,0 -2.779,0.474 -3.543,1.379 -0.837,0.986 -1.096,2.431 -0.785,4.284 l 12.008,75.315 c 0.578,3.513 2.801,5.53 6.078,5.53 1.549,0 2.772,-0.467 3.528,-1.371 C 0.052,3.298 0.311,1.853 0,0 m -2.142,21.814 c -18.879,0 -30.575,-7.22 -33.459,-24.319 L -46.786,-73.04 c -1.897,-15.833 8.339,-24.03 26.543,-24.03 18.871,0 30.398,6.819 33.281,23.919 l 0.045,-0.015 h 0.007 l 11.029,69.689 c 2.883,17.1 -7.382,25.291 -26.261,25.291" style="fill:#ed1c24;fill-opacity:1;fill-rule:nonzero;stroke:none" id="path22"/>
        </g>
        <g id="g24" transform="translate(658.5776,180.6983)">
          <path d="M 0,0 22.948,144.901 H -2.194 L -25.149,0 Z" style="fill:#ed1c24;fill-opacity:1;fill-rule:nonzero;stroke:none" id="path26"/>
        </g>
        <g id="g28" transform="translate(442.0723,297.6173)">
          <path d="m 0,0 0.119,0.845 c -8.917,1.216 -18.798,-0.652 -25.18,-8.532 l -4.521,7.279 h -15.024 l -18.45,-116.519 h 25.142 l 13.698,86.485 c 1.898,11.889 13.187,10.37 20.71,8.568 z M 11.088,28.033 -11.859,-116.86 H 13.283 L 36.23,28.041 Z" style="fill:#ed1c24;fill-opacity:1;fill-rule:nonzero;stroke:none" id="path30"/>
        </g>
        <g id="g32" transform="translate(516.1719,276.5318)">
          <path d="m 0,0 -12.03,-75.389 c -0.608,-3.469 -2.809,-5.456 -6.049,-5.456 -1.556,0 -2.779,0.475 -3.543,1.387 -0.837,0.985 -1.096,2.423 -0.785,4.284 l 12.008,75.307 c 0.585,3.514 2.801,5.537 6.078,5.537 1.549,0 2.772,-0.474 3.528,-1.371 C 0.044,3.306 0.311,1.853 0,0 M 7.353,49.024 2.261,16.826 c -3.277,3.35 -8.465,5.055 -15.151,5.055 -13.505,0 -19.968,-6.945 -22.11,-20.45 l -12.379,-78.169 c -2.142,-13.402 4.878,-20.273 18.338,-20.273 8.576,0 14.668,2.802 19.175,8.302 l 4.336,-7.167 H 9.554 l 22.948,144.9 z" style="fill:#ed1c24;fill-opacity:1;fill-rule:nonzero;stroke:none" id="path34"/>
        </g>
        <g id="g36" transform="translate(787.7847,298.461)">
          <path d="m 0,0 c -19.146,0 -30.509,-6.434 -33.6,-24.327 l -1.385,-7.723 c -1.913,-10.644 0.444,-19.984 9.006,-26.885 l 14.52,-12.934 c 2.876,-2.394 3.735,-5.285 3.364,-8.628 l -2.668,-16.758 c -0.607,-3.462 -2.816,-5.441 -6.055,-5.441 -1.557,0 -2.78,0.474 -3.536,1.371 -0.837,0.986 -1.104,2.439 -0.793,4.292 l 3.239,20.324 h -24.053 l -3.068,-17.975 c -2.187,-16.01 8.539,-24.208 25.853,-24.208 20.518,0 30.924,6.768 33.934,23.868 l 1.757,10.325 c 1.904,10.651 0.436,21.088 -8.021,27.655 l -15.476,13.638 c -3.01,2.35 -4.07,5.048 -3.38,8.85 l 0.029,0.156 1.883,12.674 c 0.593,3.514 2.809,5.538 6.086,5.53 1.549,0 2.771,-0.474 3.528,-1.371 0.845,-0.986 1.104,-2.432 0.793,-4.291 l -2.728,-17.1 24.475,0.007 2.224,13.497 C 28.737,-10.518 21.636,0 0,0" style="fill:#ed1c24;fill-opacity:1;fill-rule:nonzero;stroke:none" id="path38"/>
        </g>
        <g id="g40" transform="translate(857.8892,298.461)">
          <path d="m 0,0 c -19.146,0 -30.509,-6.434 -33.593,-24.327 l -1.4,-7.723 c -1.905,-10.644 0.452,-19.984 9.014,-26.885 l 14.519,-12.934 c 2.884,-2.394 3.736,-5.285 3.365,-8.628 l -2.668,-16.758 c -0.607,-3.462 -2.816,-5.441 -6.055,-5.441 -1.557,0 -2.78,0.474 -3.543,1.371 -0.83,0.986 -1.098,2.439 -0.786,4.292 l 3.239,20.324 h -24.053 l -3.068,-17.975 c -2.187,-16.01 8.539,-24.208 25.853,-24.208 20.518,0 30.924,6.768 33.934,23.868 l 1.756,10.325 c 1.905,10.651 0.437,21.088 -8.02,27.655 l -15.476,13.638 c -3.01,2.35 -4.07,5.048 -3.38,8.85 l 0.029,0.156 1.891,12.674 c 0.585,3.514 2.801,5.538 6.078,5.53 1.549,0 2.771,-0.474 3.527,-1.371 0.846,-0.986 1.105,-2.432 0.793,-4.291 l -2.727,-17.1 24.475,0.007 2.224,13.497 C 28.736,-10.518 21.636,0 0,0" style="fill:#ed1c24;fill-opacity:1;fill-rule:nonzero;stroke:none" id="path42"/>
        </g>
        <g id="g44" transform="translate(707.3394,201.1393)">
          <path d="m 0,0 h 0.022 c -0.608,-3.469 -2.809,-5.448 -6.055,-5.448 -1.557,0 -2.78,0.474 -3.543,1.379 -0.631,0.741 -0.927,1.749 -0.92,2.986 0,0.416 0.045,0.853 0.127,1.328 l 3.268,20.472 c 0.705,4.299 2.676,7.049 6.612,9.191 l 5.841,2.98 z m 10.133,97.285 c -18.813,0 -30.954,-7.286 -33.792,-24.386 l -2.283,-14.595 h 24.845 l 2.743,17.218 c 0.585,3.521 2.809,5.545 6.078,5.545 1.556,0 2.771,-0.482 3.535,-1.379 0.838,-0.993 1.104,-2.439 0.786,-4.292 L 8.591,53.182 -14.528,40.982 C -25.357,35.282 -30.724,27.758 -32.65,15.788 l -2.744,-17.093 c -2.164,-13.453 4.9,-20.287 18.353,-20.287 8.547,0 14.558,2.846 19.116,8.317 l 4.329,-7.175 h 15.084 l 14.817,92.911 c 2.846,17.1 -8.798,24.831 -26.172,24.824" style="fill:#ed1c24;fill-opacity:1;fill-rule:nonzero;stroke:none" id="path46"/>
        </g>
        <g id="g48" transform="translate(614.771,326.7779)">
          <path d="m 0,0 c -18.871,0 -32.035,-7.724 -34.741,-24.831 l -15.543,-96.507 c -2.587,-16.536 7.093,-25.92 28.773,-25.928 18.264,0.008 30.614,7.62 33.325,24.72 l 5.649,33.896 H -8.042 l -0.037,-0.274 -5.775,-36.149 c -0.578,-3.662 -2.868,-5.76 -6.292,-5.76 -1.631,0 -2.928,0.504 -3.751,1.46 -0.897,1.053 -1.194,2.573 -0.889,4.515 l 16.602,102.947 c 0.586,3.662 2.876,5.76 6.301,5.76 1.623,0 2.928,-0.504 3.751,-1.468 0.897,-1.052 1.194,-2.565 0.889,-4.499 l -4.914,-29.945 h 25.349 l 4.322,26.668 C 30.234,-8.287 18.871,0 0,0" style="fill:#ed1c24;fill-opacity:1;fill-rule:nonzero;stroke:none" id="path50"/>
        </g>
        <g id="g52" transform="translate(901.5073,269.8722)">
          <path d="m 0,0 -11.289,-70.223 c -2.854,-16.248 -6.397,-36.461 -44.77,-36.461 H -308.25 c -18.531,0.008 -31.035,4.01 -38.529,13.283 -6.99,8.65 -8.695,17.026 -8.695,17.026 l -4.854,-30.301 v -0.008 h -202.249 c -19.272,0 -29.923,5.522 -35.534,11.689 -0.104,0.097 -0.185,0.201 -0.267,0.304 v 0.023 h -0.022 l -3.647,-12.008 h -0.119 -113.591 v 180.82 h 168.672 l -8.688,-28.641 h 87.597 l 4.507,28.656 131.982,-0.008 -3.981,-27.239 6.522,7.508 c 10.881,12.542 26.343,19.731 42.428,19.731 h 87.864 l -4.758,-30.071 4.158,0.904 c 4.78,1.038 9.969,1.572 15.417,1.572 13.216,0 23.949,-3.343 31.888,-9.932 l 1.786,-1.49 1.845,1.415 c 8.665,6.664 20.369,10.036 34.793,10.036 13.497,0 24.26,-3.268 31.984,-9.702 l 1.763,-1.483 1.846,1.387 c 8.636,6.5 20.236,9.798 34.482,9.798 16.395,0 28.677,-4.788 36.512,-14.231 C -2.253,26.461 2.95,16.077 0,0 m -727.001,-117.935 h 133.293 l 1.438,4.714 c 7.368,-3.692 17.078,-4.722 29.693,-4.722 v 0.015 h 211.825 l 1.802,11.126 c 9.702,-7.561 22.881,-11.126 40.7,-11.126 h 252.191 c 47.809,0 53.035,29.767 55.867,45.919 L 11.081,-1.897 C 14.765,18.367 7.916,31.813 1.52,39.529 -8.554,51.678 -23.749,57.83 -43.65,57.83 c -14.121,0 -26.209,-2.884 -36.031,-8.591 -9.102,5.707 -20.524,8.591 -34.044,8.591 -14.313,0 -26.521,-2.957 -36.401,-8.813 -9.228,5.833 -20.599,8.776 -33.911,8.776 -2.046,0 -4.062,-0.06 -6.056,-0.193 l 4.404,27.796 -77.213,-0.008 -23.809,0.008 c -11.74,0 -23.185,-3.165 -33.28,-9.006 l 1.311,9.006 -154.603,0.007 -4.506,-28.655 h -62.826 l 8.695,28.64 h -195.081 v -203.316" style="fill:#ed1c24;fill-opacity:1;fill-rule:nonzero;stroke:none" id="path54"/>
        </g>
        <g id="g56" transform="translate(901.5073,269.8722)">
          <path d="m 0,0 -11.289,-70.223 c -2.854,-16.248 -6.397,-36.461 -44.77,-36.461 H -308.25 c -18.531,0.008 -31.035,4.01 -38.529,13.283 -6.99,8.65 -8.695,17.026 -8.695,17.026 l -4.854,-30.301 v -0.008 h -202.249 c -19.272,0 -29.923,5.522 -35.534,11.689 -0.104,0.097 -0.185,0.201 -0.267,0.304 v 0.023 h -0.022 l -3.647,-12.008 h -0.119 -113.591 v 180.82 h 168.672 l -8.688,-28.641 h 87.597 l 4.507,28.656 131.982,-0.008 -3.981,-27.239 6.522,7.508 c 10.881,12.542 26.343,19.731 42.428,19.731 h 87.864 l -4.758,-30.071 4.158,0.904 c 4.78,1.038 9.969,1.572 15.417,1.572 13.216,0 23.949,-3.343 31.888,-9.932 l 1.786,-1.49 1.845,1.415 c 8.665,6.664 20.369,10.036 34.793,10.036 13.497,0 24.26,-3.268 31.984,-9.702 l 1.763,-1.483 1.846,1.387 c 8.636,6.5 20.236,9.798 34.482,9.798 16.395,0 28.677,-4.788 36.512,-14.231 C -2.253,26.461 2.95,16.077 0,0 m -727.001,-117.935 h 133.293 l 1.438,4.714 c 7.368,-3.692 17.078,-4.722 29.693,-4.722 v 0.015 h 211.825 l 1.802,11.126 c 9.702,-7.561 22.881,-11.126 40.7,-11.126 h 252.191 c 47.809,0 53.035,29.767 55.867,45.919 L 11.081,-1.897 C 14.765,18.367 7.916,31.813 1.52,39.529 -8.554,51.678 -23.749,57.83 -43.65,57.83 c -14.121,0 -26.209,-2.884 -36.031,-8.591 -9.102,5.707 -20.524,8.591 -34.044,8.591 -14.313,0 -26.521,-2.957 -36.401,-8.813 -9.228,5.833 -20.599,8.776 -33.911,8.776 -2.046,0 -4.062,-0.06 -6.056,-0.193 l 4.404,27.796 -77.213,-0.008 -23.809,0.008 c -11.74,0 -23.185,-3.165 -33.28,-9.006 l 1.311,9.006 -154.603,0.007 -4.506,-28.655 h -62.826 l 8.695,28.64 h -195.081 v -203.316" style="fill:#ed1c24;fill-opacity:1;fill-rule:nonzero;stroke:none" id="path58"/>
        </g>
        <g id="g60" transform="translate(284.498,181.3136)">
          <path d="M 0,0 44.496,144.693 H 19.301 L -3.543,71.305 h -1.631 l 0.253,73.388 h -27.656 l -21.798,-73.41 h -1.631 v 73.41 h -24.75 V 0 h 26.484 l 24.764,82.876 h 1.623 L -26.461,0 Z" style="fill:#ed1c24;fill-opacity:1;fill-rule:nonzero;stroke:none" id="path62"/>
        </g>
      </g>
    </g>
  </g>
</svg>