<svg width="129" height="27" viewBox="0 0 129 27" fill="none" xmlns="http://www.w3.org/2000/svg">
<g clip-path="url(#clip0_23439_2)">
<path d="M24.2682 0.140625H2.10681C1.59777 0.140625 1.10959 0.342837 0.749652 0.702777C0.389712 1.06272 0.1875 1.55089 0.1875 2.05993V24.2213C0.1875 24.7303 0.389712 25.2185 0.749652 25.5785C1.10959 25.9384 1.59777 26.1406 2.10681 26.1406H24.2682C24.7772 26.1406 25.2654 25.9384 25.6254 25.5785C25.9853 25.2185 26.1875 24.7303 26.1875 24.2213V2.05993C26.1875 1.55089 25.9853 1.06272 25.6254 0.702777C25.2654 0.342837 24.7772 0.140625 24.2682 0.140625ZM7.93694 22.2894H4.02792V9.87257H7.93694V22.2894ZM5.97972 8.15187C5.53631 8.14937 5.10358 8.01558 4.73613 7.76739C4.36868 7.51919 4.08299 7.16771 3.91512 6.75729C3.74724 6.34688 3.7047 5.89594 3.79287 5.46137C3.88103 5.02681 4.09595 4.6281 4.4105 4.31556C4.72505 4.00302 5.12513 3.79067 5.56026 3.7053C5.99538 3.61992 6.44604 3.66535 6.85536 3.83586C7.26469 4.00637 7.61433 4.2943 7.86017 4.66333C8.10601 5.03237 8.23702 5.46596 8.23667 5.90938C8.24085 6.20625 8.18522 6.50092 8.0731 6.77584C7.96097 7.05075 7.79465 7.30026 7.58404 7.50953C7.37342 7.71879 7.12284 7.88351 6.84721 7.99388C6.57158 8.10423 6.27656 8.15796 5.97972 8.15187ZM22.3453 22.3002H18.4381V15.5167C18.4381 13.5162 17.5876 12.8987 16.4899 12.8987C15.3307 12.8987 14.1932 13.7725 14.1932 15.5673V22.3002H10.2842V9.88159H14.0433V11.6023H14.0939C14.4713 10.8385 15.7929 9.53312 17.8097 9.53312C19.9908 9.53312 22.3471 10.8277 22.3471 14.6194L22.3453 22.3002Z" fill="white"/>
</g>
<g clip-path="url(#clip1_23439_2)">
<path d="M127.669 6.84145C127.522 6.28832 127.233 5.78349 126.829 5.37749C126.426 4.9715 125.923 4.67858 125.371 4.52804C123.338 3.98145 115.213 3.98145 115.213 3.98145C115.213 3.98145 107.088 3.98145 105.055 4.52804C104.503 4.67858 104 4.9715 103.597 5.37749C103.193 5.78349 102.904 6.28832 102.757 6.84145C102.213 8.88304 102.213 13.1405 102.213 13.1405C102.213 13.1405 102.213 17.398 102.757 19.4396C102.904 19.9927 103.193 20.4976 103.597 20.9036C104 21.3096 104.503 21.6025 105.055 21.753C107.088 22.2996 115.213 22.2996 115.213 22.2996C115.213 22.2996 123.338 22.2996 125.371 21.753C125.923 21.6025 126.426 21.3096 126.829 20.9036C127.233 20.4976 127.522 19.9927 127.669 19.4396C128.213 17.398 128.213 13.1405 128.213 13.1405C128.213 13.1405 128.213 8.88304 127.669 6.84145Z" fill="#FAFAFA"/>
<path d="M112.555 17.0067V9.27465L119.35 13.1407L112.555 17.0067Z" fill="#214E41"/>
</g>
<g clip-path="url(#clip2_23439_2)">
<path d="M59.364 23.7037C69.1753 23.7037 74.5417 15.5751 74.5417 8.52598C74.5417 8.2951 74.5417 8.06526 74.5261 7.83646C75.5701 7.08134 76.4713 6.14635 77.1875 5.07527C76.214 5.50687 75.1812 5.78979 74.1237 5.91455C75.2373 5.24796 76.0708 4.1994 76.4689 2.96407C75.4218 3.58548 74.2762 4.02338 73.0816 4.25887C72.2773 3.40366 71.2136 2.83736 70.055 2.64761C68.8965 2.45785 67.7077 2.65522 66.6726 3.20918C65.6376 3.76313 64.8139 4.64277 64.3291 5.712C63.8444 6.78122 63.7255 7.9804 63.9909 9.12398C61.8701 9.01759 59.7954 8.46644 57.9014 7.50628C56.0074 6.54611 54.3365 5.1984 52.9971 3.55063C52.315 4.72496 52.106 6.11513 52.4129 7.43809C52.7197 8.76104 53.5192 9.91733 54.6486 10.6715C53.7997 10.6466 52.9692 10.4176 52.2275 10.0038V10.0714C52.2278 11.303 52.6542 12.4965 53.4342 13.4496C54.2142 14.4027 55.2999 15.0567 56.5071 15.3005C55.7218 15.5147 54.8978 15.546 54.0985 15.392C54.4395 16.4519 55.1031 17.3787 55.9967 18.0429C56.8902 18.7071 57.969 19.0755 59.0821 19.0965C57.9761 19.9659 56.7096 20.6086 55.3549 20.988C54.0003 21.3674 52.5841 21.476 51.1875 21.3076C53.627 22.873 56.4654 23.7034 59.364 23.6996" fill="#FAFAFA"/>
</g>
<defs>
<clipPath id="clip0_23439_2">
<rect width="26" height="26" fill="white" transform="translate(0.1875 0.140625)"/>
</clipPath>
<clipPath id="clip1_23439_2">
<rect width="26" height="26" fill="white" transform="translate(102.188 0.140625)"/>
</clipPath>
<clipPath id="clip2_23439_2">
<rect width="26" height="22" fill="white" transform="translate(51.1875 2.14062)"/>
</clipPath>
</defs>
</svg>
